<svg xmlns="http://www.w3.org/2000/svg" fill="none" viewBox="0 0 527 515"><path fill="#000" d="M139 168.032c0-10.23 8.293-18.523 18.523-18.523h74.09c10.229 0 18.522 8.293 18.522 18.523v74.09c0 10.229-8.293 18.522-18.522 18.522h-74.09c-10.23 0-18.523-8.293-18.523-18.522v-74.09z"></path><path fill="url(#paint0_linear_64_4478)" fill-rule="evenodd" d="M192.379 186.188l.001-.001c3.054 1.599 6.397 2.147 9.595 2.138 1.858 1.741 3.405 3.787 4.857 5.888a23.62 23.62 0 011.626 2.748c1.111 2.183 1.928 4.493 2.755 6.83.243.685.486 1.373.738 2.06.079.294.161.589.247.883l.004-.001c1.277 4.469 3.142 9.242 5.64 13.184l-.003.001a29.18 29.18 0 002.768 3.666c.2.221.405.439.61.658v.001c.957 1.023 1.921 2.053 2.467 3.342.68 1.606.628 3.453.219 5.153-1.93 8.011-9.491 10.116-16.717 10.31l.003-.009c-2.709.055-5.4-.151-7.785-.4 0 0-11.507-1.216-21.261-8.492l-.314-.239a35.33 35.33 0 01-3.253-2.8c-2.734-2.663-5.166-5.683-7.026-8.998l.037-.038c-.22-.404-.431-.812-.633-1.225-1.8-3.675-2.896-7.676-2.946-11.928-.085-7.135 2.308-14.442 6.855-19.74a.05.05 0 01-.005-.013c2.462-2.752 5.539-4.913 9.182-6.144a20.67 20.67 0 017.088-1.105 17.637 17.637 0 005.251 4.271zm-5.606 46.685a20.79 20.79 0 004.66-2.454 21.868 21.868 0 01-4.66 2.454z" clip-rule="evenodd"></path><path fill="url(#paint1_linear_64_4478)" fill-rule="evenodd" d="M216.262 180.377h.003l.1-.065c-12.829-22.33-29.604-4.749-29.604-4.749l.024.043h-.003c9.646 17.258 27.979 5.756 29.48 4.771z" clip-rule="evenodd"></path><path fill="url(#paint2_linear_64_4478)" d="M200.359 218.838c-3.535 8.623-10.322 14.333-18.546 15.198-.176.024-2.427.205-3.669.111 9.753 7.277 21.26 8.492 21.26 8.492 2.463.258 5.252.469 8.051.394.985-2.625 1.54-5.631 1.381-9.042-.37-7.921 4.132-11.988 9.006-14.074-2.498-3.941-4.363-8.715-5.639-13.184-3.807 1.034-8.64 4.283-11.844 12.105z"></path><path fill="url(#paint3_linear_64_4478)" d="M208.681 233.934c.16 3.411-.51 6.488-1.495 9.114 7.225-.194 14.786-2.299 16.716-10.311.409-1.699.462-3.547-.218-5.153-.664-1.565-1.942-2.748-3.077-4.001a29.182 29.182 0 01-2.878-3.839c-4.87 2.087-9.417 6.27-9.048 14.19z"></path><path fill="url(#paint4_linear_64_4478)" d="M211.951 205.851c-1.11-3.031-2.055-6.067-3.492-8.89a23.846 23.846 0 00-1.626-2.748c-1.453-2.101-2.999-4.147-4.858-5.888-3.198.009-6.54-.539-9.595-2.138-3.094 4.478-6.634 12.075-3.393 20.746 4.785 12.805-4.926 21.557-11.158 26.976l.315.238c1.168.093 2.343.076 3.508-.051 8.223-.866 15.403-6.713 18.938-15.335 3.204-7.823 7.866-10.794 11.667-11.828a43.8 43.8 0 01-.306-1.082z"></path><path fill="url(#paint5_linear_64_4478)" d="M171.197 188.797c-4.764 5.325-7.276 12.813-7.189 20.121.05 4.253 1.146 8.253 2.946 11.928.27.552.556 1.096.858 1.632 10.016-10.258 6.397-25.543 3.385-33.681z"></path><path fill="url(#paint6_linear_64_4478)" d="M189.154 206.933c-3.24-8.675.221-16.222 3.311-20.699a17.637 17.637 0 01-5.337-4.317 20.67 20.67 0 00-7.088 1.105c-3.643 1.231-6.72 3.392-9.182 6.144 2.946 7.959 6.486 22.911-3.308 32.944 1.86 3.315 4.292 6.335 7.026 8.998a35.4 35.4 0 003.421 2.928c6.232-5.416 15.942-14.298 11.157-27.103z"></path><path fill="url(#paint7_linear_64_4478)" d="M201.238 176.984c6.782 2.731 11.531 3.47 14.975 3.365l.099-.066c-12.829-22.33-29.604-4.749-29.604-4.749l.024.044c3.619-.655 8.878-.858 14.506 1.406z"></path><path fill="url(#paint8_linear_64_4478)" d="M201.323 176.83c-5.625-2.261-10.914-2.175-14.594-1.252 9.647 17.258 27.981 5.754 29.481 4.771-3.446.106-8.106-.789-14.887-3.519z"></path><rect width="111.135" height="111.135" x="139" y="286.113" fill="#000" rx="18.523"></rect><mask id="mask0_64_4478" width="71" height="56" x="159" y="315" maskUnits="userSpaceOnUse" style="mask-type: alpha;"><path fill="#fff" fill-rule="evenodd" d="M177.646 322.56a4.434 4.434 0 10-6.431-6.107l-6.341 6.676c-7.065 7.44-7.154 19.083-.203 26.63 7.329 7.958 19.736 8.424 27.642 1.04l9.398-8.776c4.846-4.526 12.5-4.047 16.744 1.046 3.998 4.797 3.455 11.903-1.223 16.037l-4.6 4.065a4.434 4.434 0 005.873 6.646l4.6-4.065c8.274-7.312 9.233-19.878 2.164-28.361-7.507-9.008-21.042-9.853-29.611-1.85l-9.398 8.777a10.625 10.625 0 01-14.955-15.081l6.341-6.677zm-1.128 17.094a4.434 4.434 0 01-.25-6.266l.484-.527c3.526-3.843 11.081-12.077 22.152-15.429a4.435 4.435 0 112.57 8.489c-8.69 2.631-14.804 9.267-18.365 13.131l-.324.351a4.435 4.435 0 01-6.267.251zm35.171 8.579a4.436 4.436 0 01.25 6.267l-.174.189c-3.443 3.732-11.365 12.321-22.746 15.766a4.434 4.434 0 11-2.57-8.488c8.992-2.723 15.525-9.747 18.973-13.483a4.435 4.435 0 016.267-.251z" clip-rule="evenodd"></path></mask><g mask="url(#mask0_64_4478)"><path fill="url(#paint9_linear_64_4478)" d="M158.761 314.506h71.897v57.366h-71.897z"></path></g><rect width="111.135" height="111.135" x="277.918" y="333.577" fill="#000" rx="18.523"></rect><mask id="mask1_64_4478" width="70" height="94" x="300" y="343" maskUnits="userSpaceOnUse" style="mask-type: alpha;"><path fill="#fff" fill-rule="evenodd" d="M318.299 347.695l6.535-3.707L357.41 362.3A24.689 24.689 0 01370 383.821v30.128c0 5.562-3.97 10.332-9.44 11.342a13.017 13.017 0 003.05-8.373v-28.843c0-9.389-5.09-18.039-13.298-22.598l-32.013-17.782zm-2.469 1.4l-6.535 3.707 32.013 17.782a25.85 25.85 0 0113.298 22.599v28.843c0 3.063-1.08 6.027-3.05 8.372a11.533 11.533 0 009.44-11.342v-30.127a24.688 24.688 0 00-12.59-21.521l-32.576-18.313zM300 416.311v-58.236l6.39-3.631 32.499 18.124a24.98 24.98 0 0112.812 21.816v29.97a12.136 12.136 0 01-18.019 10.617L300 416.311zm6.39-54.46v50.684l34.975 19.431a2.461 2.461 0 003.609-1.675l-35.244-19.644v-46.908l1.857 1.003-5.197-2.891zm38.631 58.945v3.422l-29.917-16.621v-40.898l7.24 4.028-4.045-2.196v37.324l26.722 14.941zm0-5.374v-17.903a24.108 24.108 0 00-12.387-21.066l-9.252-5.148v31.936l21.639 12.181z" clip-rule="evenodd"></path></mask><g mask="url(#mask1_64_4478)"><path fill="url(#paint10_linear_64_4478)" d="M291 339h79v99h-79z"></path><path fill="url(#paint11_linear_64_4478)" d="M291 339h79v99h-79z"></path><path fill="url(#paint12_diamond_64_4478)" d="M291 339h79v99h-79z"></path><path fill="url(#paint13_linear_64_4478)" d="M291 339h79v99h-79z"></path></g><path fill="#000" d="M415.68 421.559c0-10.23 8.293-18.523 18.522-18.523h74.09c10.23 0 18.523 8.293 18.523 18.523v74.09c0 10.229-8.293 18.522-18.523 18.522h-74.09c-10.23 0-18.522-8.293-18.522-18.522v-74.09z"></path><path fill="#6966FB" fill-rule="evenodd" d="M504.587 428.597a3.334 3.334 0 00-3.334-3.334h-50.134c-2.191 0-4.107.318-5.751.953-1.643.685-3.012 1.589-4.107 2.714-1.141 1.173-1.986 2.493-2.533 3.959a13.702 13.702 0 00-.822 4.694v7.38a6.973 6.973 0 006.973 6.973h39.704l-20.004-13.337h36.674a3.333 3.333 0 003.334-3.334v-6.668zm-66.681 60.013a3.334 3.334 0 003.334 3.334h50.134c2.191 0 4.108-.318 5.751-.953 1.643-.684 3.012-1.589 4.108-2.713 1.141-1.174 1.985-2.494 2.533-3.96.547-1.516.821-3.08.821-4.693v-7.381a6.971 6.971 0 00-6.972-6.972h-39.704l20.004 13.336H441.24a3.334 3.334 0 00-3.334 3.334v6.668z" clip-rule="evenodd"></path><path fill="#1F2575" d="M277.918 217.811c0-10.23 8.293-18.523 18.522-18.523h74.091c10.229 0 18.522 8.293 18.522 18.523v74.09c0 10.23-8.293 18.522-18.522 18.522H296.44c-10.229 0-18.522-8.292-18.522-18.522v-74.09z"></path><g clip-path="url(#clip0_64_4478)"><path fill="#F2C45B" d="M377.94 254.856c0 24.551-19.902 44.454-44.454 44.454-24.551 0-44.454-19.903-44.454-44.454 0-24.551 19.903-44.454 44.454-44.454 24.552 0 44.454 19.903 44.454 44.454z"></path><path fill="#fff" stroke="#000" stroke-width="1.496" d="M312.503 274.016c.386-.262.747-.656.926-1.213a2.427 2.427 0 00-.021-1.498l.075-.435c.205.116.442.271.712.461l.25.178c.124.089.255.182.343.243.149.104.362.25.588.369 5.97 3.711 10.907 5.24 14.828 5.051 4.054-.196 6.898-2.235 8.364-5.212 1.417-2.877 1.467-6.442.473-9.744-.999-3.324-3.102-6.554-6.236-8.789-5.281-3.767-10.12-9.494-12.567-14.364-1.243-2.474-1.737-4.468-1.607-5.771.061-.606.247-.972.469-1.209.222-.236.627-.496 1.407-.625 1.653-.272 3.565-.867 5.505-1.471.753-.235 1.51-.471 2.258-.689 2.797-.818 5.757-1.505 8.868-1.499 6.035.011 13.118 2.631 20.575 13.531 9.579 14.002 4.32 29.648-6.716 37.868-5.503 4.099-12.37 6.275-19.426 5.448-6.353-.745-13.008-3.943-19.068-10.63zm1.111-3.624l-.007.012a.043.043 0 01.007-.012zm-.6.273z"></path><path fill="#000" d="M317.986 232.173s17.114-4.557 20.86-4.557c3.747 0 18.719 7.27 23.088 20.556 6.194 18.835-10.654 31.185-12.556 29.974 18.125-14.987-11.544-42.689-26.126-40.606-1.823.26-.81 1.823-.81 1.823l-.405 4.05-3.038-5.063-1.013-6.177z"></path><path fill="#000" d="M359.44 242.507c5.405 9.513 4.281 4.067 3.082 14.942 2.22-3.592 5.691-.903 7.125.471.257.246.681.093.669-.262-.055-1.614-.517-5.099-3.187-8.839-3.662-5.128-7.689-6.312-7.689-6.312z"></path><path stroke="#000" stroke-width="0.084" d="M362.522 257.449l.529-1.308m-.529 1.308c1.199-10.875 2.323-5.429-3.082-14.942 0 0 4.027 1.184 7.689 6.312 2.67 3.74 3.132 7.225 3.187 8.839.012.355-.412.508-.669.262-1.434-1.374-4.905-4.063-7.125-.471z"></path><path fill="#000" d="M315.962 255.998c-2.28 3.861-6.958 3.571-6.869 8.175 4.178 9.284 4.203 8.618 4.203 8.618 7.74-4.348 4.56-13.949 3.411-16.773-.13-.319-.57-.316-.745-.02z"></path><path fill="#000" d="M298.416 264.533c4.445.58 7.097-3.284 10.67-.379 4.744 9.008 4.204 8.618 4.204 8.618-8.192 3.422-13.799-4.995-15.317-7.639-.172-.299.101-.644.443-.6zm37.29-5.727s4.456 4.557 2.127 5.265c-2.904-1.787-8.109-.398-10.659.462-.628.212-1.244-.345-1.018-.968.868-2.387 3.01-6.805 7.12-7.392 2.43-.608 2.43 2.633 2.43 2.633z"></path><path fill="#fff" d="M338.442 236.528c-.507-.709-1.519-2.633 1.62-2.633 3.139 0 7.936 3.554 8.911 4.869-.304.801-2.329.981-3.342.903-1.012-.078-2.734-.245-4.05-.903-1.316-.658-2.633-1.528-3.139-2.236z"></path></g><path fill="#000" d="M415.68 287.27c0-10.229 8.293-18.522 18.522-18.522h74.09c10.23 0 18.523 8.293 18.523 18.522v74.09c0 10.23-8.293 18.523-18.523 18.523h-74.09c-10.23 0-18.522-8.293-18.522-18.523v-74.09z"></path><path fill="#fff" d="M488.687 320.577l-8.68-14.805-9.768-16.674a1.831 1.831 0 00-.674-.66 1.871 1.871 0 00-1.838 0c-.28.158-.512.386-.674.66l-18.582 31.479-7.516 12.872a1.772 1.772 0 00-.039 1.813 1.837 1.837 0 001.588.922h14.31c.333.005.661-.079.949-.243a1.82 1.82 0 00.685-.689l7.451-12.599 1.154-1.929c.068-.067.137-.135.137-.199a1.83 1.83 0 01.7-.546 1.865 1.865 0 011.729.113c.256.158.469.375.62.632l7.732 13.14 1.425 2.401c.068.131.134.266.202.398a1.818 1.818 0 01-.295 1.595 1.869 1.869 0 01-1.466.742h-16.954a1.847 1.847 0 00-.95.242 1.806 1.806 0 00-.684.69l-7.121 12.213a1.8 1.8 0 00.011 1.833c.166.277.403.506.688.664.285.158.608.239.935.235h51.742c.324-.002.643-.088.924-.247.28-.16.515-.388.679-.664a1.823 1.823 0 00.031-1.821l-18.451-31.568z"></path><path fill="#000" d="M415.68 18.523C415.68 8.293 423.973 0 434.202 0h74.09c10.23 0 18.523 8.293 18.523 18.523v74.09c0 10.229-8.293 18.522-18.523 18.522h-74.09c-10.23 0-18.522-8.293-18.522-18.522v-74.09z"></path><path fill="url(#paint14_linear_64_4478)" d="M488.454 43.162l4.638 5.67c.531.638 1.002 1.162 1.192 1.46a7.75 7.75 0 012.163 5.393c-.13 2.383-1.622 4.006-3.005 5.743l-3.245 3.965-1.693 2.055a.489.489 0 00.109.731c.079.049.17.073.262.07h16.918c2.585 0 5.84 2.26 5.65 5.691a5.988 5.988 0 01-1.687 4.157 5.688 5.688 0 01-4.053 1.73h-26.495c-1.742 0-6.43.195-7.743-3.966a5.064 5.064 0 01-.11-2.691 11.891 11.891 0 011.783-3.658c1.332-2.054 2.775-4.109 4.197-6.102 1.833-2.61 3.717-5.136 5.57-7.797a.506.506 0 000-.606l-6.732-8.218a.468.468 0 00-.585-.142.477.477 0 00-.166.142c-1.803 2.496-9.696 13.55-11.379 15.79-1.683 2.239-5.83 2.362-8.124 0L445.392 51.74a.469.469 0 00-.525-.108.485.485 0 00-.216.183.503.503 0 00-.081.274v20.844a7.216 7.216 0 01-1.221 4.147 6.935 6.935 0 01-3.347 2.644 5.622 5.622 0 01-2.702.27 5.68 5.68 0 01-2.523-1.031 5.861 5.861 0 01-1.782-2.102 6.01 6.01 0 01-.645-2.705V36.68a6.526 6.526 0 011.354-3.706 6.263 6.263 0 013.213-2.19 6.238 6.238 0 013.322.008 6.358 6.358 0 012.869 1.717l16.187 16.622a.464.464 0 00.721-.062l11.5-16.324a5.754 5.754 0 011.952-1.569 5.619 5.619 0 012.415-.578h29.91a5.631 5.631 0 012.373.53 5.755 5.755 0 011.947 1.487c.539.632.94 1.375 1.176 2.179a6.05 6.05 0 01.194 2.482 6.073 6.073 0 01-2.01 3.704 5.792 5.792 0 01-3.89 1.432h-16.748a.463.463 0 00-.407.26.497.497 0 00.026.49z"></path><path fill="#000" d="M277.918 83.522c0-10.23 8.293-18.522 18.522-18.522h74.091c10.229 0 18.522 8.293 18.522 18.522v74.091c0 10.229-8.293 18.522-18.522 18.522H296.44c-10.229 0-18.522-8.293-18.522-18.522v-74.09z"></path><g clip-path="url(#clip1_64_4478)"><path fill="url(#paint15_linear_64_4478)" d="M297.543 145.418a45.243 45.243 0 0032.001 18.588c-3.263-4.91-8.006-9.428-13.928-12.868-5.922-3.439-12.193-5.318-18.073-5.72z"></path><path fill="url(#paint16_linear_64_4478)" d="M323.574 137.443c-11.409-6.628-23.757-8.318-32.593-5.334a45.46 45.46 0 003.359 8.151c7.677-.178 16.058 1.907 23.857 6.436 7.8 4.53 13.765 10.782 17.415 17.54a45.648 45.648 0 008.749-1.12c-1.787-9.152-9.381-19.044-20.787-25.673z"></path><path fill="url(#paint17_linear_64_4478)" d="M377.941 110.539a45.229 45.229 0 00-21.197-28.305 45.23 45.23 0 00-35.089-4.395c9.763 1.195 20.6 4.86 31.228 11.034s19.187 13.771 25.058 21.666z"></path><path fill="url(#paint18_linear_64_4478)" d="M363.735 132.177c-4.997-8.299-13.558-16.246-24.104-22.373-10.545-6.126-21.687-9.625-31.363-9.857-8.513-.201-14.902 2.273-17.525 6.788-.015.027-.036.052-.052.079a46.09 46.09 0 00-.625 2.547c3.662-1.446 7.905-2.251 12.623-2.341 10.492-.197 22.234 3.159 33.069 9.454 10.836 6.295 19.574 14.837 24.598 24.046 2.253 4.149 3.658 8.233 4.215 12.136a44.128 44.128 0 001.901-1.801c.017-.029.027-.059.044-.089 2.622-4.519 1.608-11.293-2.781-18.589z"></path><path fill="url(#paint19_linear_64_4478)" d="M331.609 123.613c-16.149-9.382-33.995-10.852-42.577-4.304.017 2.049.174 4.095.469 6.123a35.59 35.59 0 017.757-1.437c9.59-.721 20.163 1.951 29.757 7.528 9.594 5.576 17.157 13.441 21.282 22.123a35.269 35.269 0 012.593 7.449 45.184 45.184 0 005.554-2.624c1.437-10.699-8.681-25.474-24.835-34.858z"></path><path fill="url(#paint20_linear_64_4478)" d="M372.042 118.286c-5.054-8.291-13.689-16.26-24.31-22.427-10.62-6.166-21.805-9.72-31.512-10.006-7.401-.213-13.133 1.58-16.105 4.969 12.341-2.091 28.619 1.423 44.396 10.589 15.777 9.165 26.898 21.567 31.19 33.323 1.471-4.258.191-10.126-3.659-16.448z"></path></g><path fill="#000" d="M415.68 152.982c0-10.23 8.293-18.523 18.522-18.523h74.09c10.23 0 18.523 8.293 18.523 18.523v74.09c0 10.23-8.293 18.523-18.523 18.523h-74.09c-10.23 0-18.522-8.293-18.522-18.523v-74.09z"></path><path fill="url(#paint21_linear_64_4478)" d="M437.906 195.762c0 18.285 14.957 33.162 33.341 33.162s33.34-14.877 33.34-33.162c0-17.916-21.837-40.483-22.767-41.434-.531-.555-1.408-.555-1.966-.027-.558.529-.558 1.401-.026 1.956.053.053 5.605 5.76 11.078 13.503 7.146 10.12 10.918 19.105 10.918 26.002 0 16.779-13.708 30.414-30.577 30.414-16.87 0-30.578-13.661-30.578-30.414 0-6.897 3.746-15.882 10.839-26.002 5.42-7.743 10.919-13.45 10.972-13.503.531-.555.531-1.427-.027-1.956-.557-.528-1.434-.528-1.966.027-.239.238-5.685 5.892-11.237 13.82-7.518 10.755-11.344 20.056-11.344 27.614z"></path><path fill="url(#paint22_linear_64_4478)" d="M471.247 222.318c-15.116 0-27.39-12.234-27.39-27.244 0-14.692 20.615-35.197 21.492-36.043a1.418 1.418 0 011.966 0 1.4 1.4 0 010 1.956c-.213.211-20.669 20.558-20.669 34.087 0 13.503 11.052 24.496 24.627 24.496 13.576 0 24.627-10.993 24.627-24.496 0-5.549-3.613-13.212-10.467-22.223-5.215-6.838-10.457-12.04-10.597-12.179l-.003-.002c-.558-.529-.558-1.401 0-1.956.531-.555 1.408-.555 1.966 0 .903.872 21.891 21.642 21.891 36.36-.054 15.01-12.327 27.244-27.443 27.244z"></path><path fill="url(#paint23_linear_64_4478)" fill-rule="evenodd" d="M471.247 215.712c-11.45 0-20.748-9.248-20.748-20.637 0-11.072 18.782-30.627 19.579-31.446l.983-1.03 1.009 1.004c.824.819 19.925 20.373 19.925 31.445 0 11.416-9.298 20.664-20.748 20.664zm-.16-49.123c-1.647 1.77-5.1 5.602-8.527 10.094-6.084 7.98-9.299 14.322-9.299 18.365 0 9.856 8.077 17.89 17.986 17.89s17.985-8.034 17.985-17.89c0-4.043-3.268-10.385-9.458-18.365-3.48-4.466-7.013-8.324-8.687-10.094z" clip-rule="evenodd"></path><path fill="#000" d="M0 230.523C0 220.293 8.293 212 18.523 212h74.09c10.229 0 18.522 8.293 18.522 18.523v74.09c0 10.229-8.293 18.522-18.522 18.522h-74.09C8.292 323.135 0 314.842 0 304.613v-74.09z"></path><path fill="url(#paint24_linear_64_4478)" d="M85.427 257.032v26.351l-29.86 16.919-29.877-16.919v-33.854l29.877-16.936 22.949 13.013 3.464-1.962-26.413-14.974-33.34 18.897v37.778l33.34 18.897 33.34-18.897V255.07l-3.48 1.962z"></path><path fill="url(#paint25_linear_64_4478)" d="M47.207 283.404h-4.996v-16.445h16.654a6.047 6.047 0 004.19-1.741 5.829 5.829 0 001.738-4.127 5.517 5.517 0 00-.442-2.229 5.593 5.593 0 00-1.306-1.874 5.781 5.781 0 00-1.912-1.277 5.855 5.855 0 00-2.268-.44H42.21v-5.002h16.67a11.196 11.196 0 017.777 3.189 10.786 10.786 0 013.248 7.633 10.376 10.376 0 01-1.949 6.13 10.82 10.82 0 01-4.796 3.858c-1.928.6-3.94.898-5.962.882h-9.992v11.443z"></path><path fill="url(#paint26_linear_64_4478)" d="M69.79 282.988h-5.829l-4.496-7.699a19.307 19.307 0 005.212-1.046l5.113 8.745z"></path><path fill="url(#paint27_linear_64_4478)" d="M81.946 251.558l3.448 1.88 3.447-1.88v-3.972l-3.447-1.962-3.448 1.962v3.972z"></path><defs><linearGradient id="paint0_linear_64_4478" x1="156.502" x2="235.776" y1="192.39" y2="238.946" gradientUnits="userSpaceOnUse"><stop stop-color="#E54033"></stop><stop offset="0.49" stop-color="#FECA1A"></stop><stop offset="1" stop-color="#AFD803"></stop></linearGradient><linearGradient id="paint1_linear_64_4478" x1="22353.6" x2="17340.6" y1="2844.63" y2="-2208.79" gradientUnits="userSpaceOnUse"><stop offset="0.15" stop-color="#6CBF00"></stop><stop offset="1" stop-color="#AFD803"></stop></linearGradient><linearGradient id="paint2_linear_64_4478" x1="170.047" x2="219.311" y1="234.752" y2="223.013" gradientUnits="userSpaceOnUse"><stop offset="0.21" stop-color="#E54033"></stop><stop offset="0.84" stop-color="#FECA1A"></stop></linearGradient><linearGradient id="paint3_linear_64_4478" x1="208.774" x2="223.941" y1="231.368" y2="231.48" gradientUnits="userSpaceOnUse"><stop stop-color="#FECA1A"></stop><stop offset="0.4" stop-color="#FECA1A"></stop><stop offset="1" stop-color="#AFD803"></stop></linearGradient><linearGradient id="paint4_linear_64_4478" x1="174.443" x2="206.356" y1="235.065" y2="192.723" gradientUnits="userSpaceOnUse"><stop offset="0.16" stop-color="#E54033"></stop><stop offset="0.84" stop-color="#FECA1A"></stop></linearGradient><linearGradient id="paint5_linear_64_4478" x1="169.914" x2="168.481" y1="192.38" y2="220.124" gradientUnits="userSpaceOnUse"><stop stop-color="#FECA1A"></stop><stop offset="0.76" stop-color="#E54033"></stop></linearGradient><linearGradient id="paint6_linear_64_4478" x1="185.126" x2="176.502" y1="185.176" y2="217.269" gradientUnits="userSpaceOnUse"><stop offset="0.16" stop-color="#FECA1A"></stop><stop offset="1" stop-color="#E54033"></stop></linearGradient><linearGradient id="paint7_linear_64_4478" x1="188.343" x2="219.239" y1="169.769" y2="180.93" gradientUnits="userSpaceOnUse"><stop offset="0.15" stop-color="#6CBF00"></stop><stop offset="1" stop-color="#AFD803"></stop></linearGradient><linearGradient id="paint8_linear_64_4478" x1="22353.5" x2="17340.6" y1="2844.61" y2="-2208.82" gradientUnits="userSpaceOnUse"><stop offset="0.15" stop-color="#6CBF00"></stop><stop offset="1" stop-color="#AFD803"></stop></linearGradient><linearGradient id="paint9_linear_64_4478" x1="221.505" x2="167.064" y1="311.203" y2="376.684" gradientUnits="userSpaceOnUse"><stop offset="0.182" stop-color="#FF5C28"></stop><stop offset="0.806" stop-color="#FF9351"></stop></linearGradient><linearGradient id="paint10_linear_64_4478" x1="359.023" x2="310.949" y1="369.402" y2="349.402" gradientUnits="userSpaceOnUse"><stop offset="0.308" stop-color="#955EF7"></stop><stop offset="1" stop-color="#955EF7" stop-opacity="0"></stop></linearGradient><linearGradient id="paint11_linear_64_4478" x1="296.969" x2="353.258" y1="354.741" y2="413.189" gradientUnits="userSpaceOnUse"><stop offset="0.266" stop-color="#F5DC82"></stop><stop offset="0.891" stop-color="#F5DC82" stop-opacity="0"></stop></linearGradient><linearGradient id="paint13_linear_64_4478" x1="388.628" x2="312.685" y1="371.794" y2="349.134" gradientUnits="userSpaceOnUse"><stop stop-color="#955EF7"></stop><stop offset="0.781" stop-color="#955EF7" stop-opacity="0"></stop></linearGradient><linearGradient id="paint14_linear_64_4478" x1="431.112" x2="512.77" y1="20.046" y2="81.29" gradientUnits="userSpaceOnUse"><stop stop-color="#900CE9"></stop><stop offset="1" stop-color="#F94E9B"></stop></linearGradient><linearGradient id="paint15_linear_64_4478" x1="361.047" x2="302.368" y1="87.672" y2="164.133" gradientUnits="userSpaceOnUse"><stop stop-color="#F9A43A"></stop><stop offset="0.25" stop-color="#FFC45E"></stop><stop offset="0.531" stop-color="#93EEEF"></stop><stop offset="0.76" stop-color="#81F4FE"></stop><stop offset="1" stop-color="#3BDBFB"></stop></linearGradient><linearGradient id="paint16_linear_64_4478" x1="361.048" x2="302.369" y1="87.672" y2="164.133" gradientUnits="userSpaceOnUse"><stop stop-color="#F9A43A"></stop><stop offset="0.25" stop-color="#FFC45E"></stop><stop offset="0.531" stop-color="#93EEEF"></stop><stop offset="0.76" stop-color="#81F4FE"></stop><stop offset="1" stop-color="#3BDBFB"></stop></linearGradient><linearGradient id="paint17_linear_64_4478" x1="361.048" x2="302.369" y1="87.672" y2="164.133" gradientUnits="userSpaceOnUse"><stop stop-color="#F9A43A"></stop><stop offset="0.25" stop-color="#FFC45E"></stop><stop offset="0.531" stop-color="#93EEEF"></stop><stop offset="0.76" stop-color="#81F4FE"></stop><stop offset="1" stop-color="#3BDBFB"></stop></linearGradient><linearGradient id="paint18_linear_64_4478" x1="361.047" x2="302.368" y1="87.672" y2="164.133" gradientUnits="userSpaceOnUse"><stop stop-color="#F9A43A"></stop><stop offset="0.25" stop-color="#FFC45E"></stop><stop offset="0.531" stop-color="#93EEEF"></stop><stop offset="0.76" stop-color="#81F4FE"></stop><stop offset="1" stop-color="#3BDBFB"></stop></linearGradient><linearGradient id="paint19_linear_64_4478" x1="361.048" x2="302.368" y1="87.672" y2="164.133" gradientUnits="userSpaceOnUse"><stop stop-color="#F9A43A"></stop><stop offset="0.25" stop-color="#FFC45E"></stop><stop offset="0.531" stop-color="#93EEEF"></stop><stop offset="0.76" stop-color="#81F4FE"></stop><stop offset="1" stop-color="#3BDBFB"></stop></linearGradient><linearGradient id="paint20_linear_64_4478" x1="361.048" x2="302.368" y1="87.671" y2="164.132" gradientUnits="userSpaceOnUse"><stop stop-color="#F9A43A"></stop><stop offset="0.25" stop-color="#FFC45E"></stop><stop offset="0.531" stop-color="#93EEEF"></stop><stop offset="0.76" stop-color="#81F4FE"></stop><stop offset="1" stop-color="#3BDBFB"></stop></linearGradient><linearGradient id="paint21_linear_64_4478" x1="471.247" x2="471.247" y1="228.917" y2="153.905" gradientUnits="userSpaceOnUse"><stop stop-color="#05AAC5"></stop><stop offset="1" stop-color="#71E0EC"></stop></linearGradient><linearGradient id="paint22_linear_64_4478" x1="471.247" x2="471.247" y1="228.917" y2="153.905" gradientUnits="userSpaceOnUse"><stop stop-color="#05AAC5"></stop><stop offset="1" stop-color="#71E0EC"></stop></linearGradient><linearGradient id="paint23_linear_64_4478" x1="471.247" x2="471.247" y1="228.917" y2="153.905" gradientUnits="userSpaceOnUse"><stop stop-color="#05AAC5"></stop><stop offset="1" stop-color="#71E0EC"></stop></linearGradient><linearGradient id="paint24_linear_64_4478" x1="88.849" x2="18.516" y1="247.588" y2="276.242" gradientUnits="userSpaceOnUse"><stop stop-color="#C200FB"></stop><stop offset="0.49" stop-color="#3772FF"></stop><stop offset="0.49" stop-color="#3773FE"></stop><stop offset="1" stop-color="#5AC4BE"></stop></linearGradient><linearGradient id="paint25_linear_64_4478" x1="88.849" x2="18.516" y1="247.593" y2="276.246" gradientUnits="userSpaceOnUse"><stop stop-color="#C200FB"></stop><stop offset="0.49" stop-color="#3772FF"></stop><stop offset="0.49" stop-color="#3773FE"></stop><stop offset="1" stop-color="#5AC4BE"></stop></linearGradient><linearGradient id="paint26_linear_64_4478" x1="88.849" x2="18.516" y1="247.585" y2="276.239" gradientUnits="userSpaceOnUse"><stop stop-color="#C200FB"></stop><stop offset="0.49" stop-color="#3772FF"></stop><stop offset="0.49" stop-color="#3773FE"></stop><stop offset="1" stop-color="#5AC4BE"></stop></linearGradient><linearGradient id="paint27_linear_64_4478" x1="88.849" x2="18.516" y1="247.59" y2="276.244" gradientUnits="userSpaceOnUse"><stop stop-color="#C200FB"></stop><stop offset="0.49" stop-color="#3772FF"></stop><stop offset="0.49" stop-color="#3773FE"></stop><stop offset="1" stop-color="#5AC4BE"></stop></linearGradient><clipPath id="clip0_64_4478"><path fill="#fff" d="M0 0h88.908v88.908H0z" transform="translate(289.032 210.402)"></path></clipPath><clipPath id="clip1_64_4478"><path fill="#fff" d="M0 0h88.908v88.908H0z" transform="translate(289.032 76.114)"></path></clipPath><radialGradient id="paint12_diamond_64_4478" cx="0" cy="0" r="1" gradientTransform="matrix(62.73515 -91.90081 35.97001 24.55456 297.65 418.594)" gradientUnits="userSpaceOnUse"><stop offset="0.475" stop-color="#D75F80"></stop><stop offset="1" stop-color="#D75F80" stop-opacity="0"></stop></radialGradient></defs></svg>