<svg xmlns="http://www.w3.org/2000/svg" width="72" height="72" fill="none" viewBox="0 0 72 72"><rect width="72" height="72" fill="#000" fill-opacity="0.3" rx="36"></rect><g clip-path="url(#clip0_69_5459)"><path fill="#fff" d="M49.65 22.349a9.813 9.813 0 00-13.946-.011c-2.866 2.866-3.718 7.085-2.12 10.814L23.26 43.475c-.309.31-.49.682-.49 1.15l.064 3.645c0 .468.394.969.991.969h6.712c.618 0 1.055-.458 1.055-1.055l-.021-3.835h5.412c.564-.01 1.022-.448 1.022-1.066l.011-5.273c4.539 1.832 8.747 1.161 11.634-1.726a9.829 9.829 0 000-13.935zm-6.477 6.477a2.656 2.656 0 010-3.75 2.637 2.637 0 013.75 0 2.656 2.656 0 010 3.75 2.656 2.656 0 01-3.75 0z"></path></g><defs><clipPath id="clip0_69_5459"><path fill="#fff" d="M0 0H48V48H0z" transform="rotate(45 15.515 44.485)"></path></clipPath></defs></svg>