<svg xmlns="http://www.w3.org/2000/svg" fill="none" viewBox="0 0 520 402"><g filter="url(#filter0_d_64_4456)"><path fill="#333" d="M20 35.69c0-10.551 8.553-19.105 19.105-19.105h441.791C491.447 16.585 500 25.14 500 35.69v303.79c0 10.551-8.553 19.104-19.104 19.104H39.104c-10.55 0-19.104-8.553-19.104-19.104V35.69z"></path><path fill="url(#paint0_linear_64_4456)" fill-opacity="0.3" d="M20 182.585h480v162H20z"></path><g filter="url(#filter1_d_64_4456)"><rect width="167" height="68" x="301" y="90.585" fill="#181818" rx="34"></rect><rect width="48" height="48" x="311" y="100.585" fill="#2775CA" rx="24"></rect><path fill="#fff" d="M341.457 128.111c0-3.421-2.052-4.593-6.157-5.082-2.931-.391-3.518-1.172-3.518-2.541 0-1.368.978-2.247 2.932-2.247 1.759 0 2.736.586 3.225 2.052a.736.736 0 00.684.489h1.563a.668.668 0 00.684-.684V120a4.881 4.881 0 00-4.397-4.007v-2.345c0-.391-.293-.684-.782-.782h-1.465c-.391 0-.685.293-.782.782v2.248c-2.932.391-4.789 2.345-4.789 4.788 0 3.225 1.955 4.495 6.059 4.984 2.736.488 3.616 1.075 3.616 2.638 0 1.564-1.368 2.639-3.225 2.639-2.541 0-3.42-1.075-3.714-2.541-.097-.391-.39-.587-.683-.587h-1.662a.669.669 0 00-.684.685v.097c.391 2.443 1.955 4.202 5.179 4.691v2.345c0 .391.294.684.782.782h1.466c.391 0 .684-.293.782-.782v-2.345c2.931-.489 4.886-2.541 4.886-5.179z"></path><path fill="#fff" d="M330.02 138.372c-7.622-2.736-11.531-11.238-8.697-18.762 1.466-4.105 4.69-7.232 8.697-8.697.391-.196.586-.489.586-.978v-1.368c0-.391-.195-.684-.586-.781-.098 0-.293 0-.391.097-9.283 2.932-14.365 12.802-11.433 22.085 1.759 5.472 5.961 9.675 11.433 11.433.391.196.782 0 .879-.39.098-.098.098-.196.098-.391v-1.368c0-.294-.293-.684-.586-.88zm10.358-30.489c-.391-.195-.782 0-.879.391-.098.098-.098.196-.098.391v1.368c0 .391.293.782.586.977 7.623 2.736 11.532 11.238 8.697 18.763-1.465 4.104-4.69 7.231-8.697 8.697-.391.195-.586.488-.586.977v1.368c0 .391.195.684.586.782.098 0 .294 0 .391-.098 9.284-2.931 14.365-12.801 11.434-22.085-1.759-5.57-6.059-9.772-11.434-11.531zm30.893 24.589c3.943 0 6.371-2.309 6.371-5.725v-10.163h-2.772v9.937c0 2.138-1.289 3.556-3.588 3.556-2.309 0-3.609-1.418-3.609-3.556v-9.937h-2.772v10.163c0 3.416 2.45 5.725 6.37 5.725zm15.079 0c3.717 0 6.048-1.89 6.048-4.909v-.011c0-2.342-1.365-3.652-4.63-4.34l-1.665-.354c-1.934-.408-2.718-1.096-2.718-2.191v-.011c0-1.322 1.225-2.127 2.943-2.127 1.773-.011 2.922.848 3.116 2.052l.021.128h2.653l-.01-.139c-.194-2.492-2.331-4.372-5.769-4.372-3.352 0-5.736 1.869-5.736 4.64v.011c0 2.31 1.375 3.792 4.544 4.458l1.665.344c1.998.43 2.803 1.106 2.803 2.224v.01c0 1.332-1.31 2.256-3.179 2.256-1.966 0-3.352-.859-3.481-2.159l-.011-.107h-2.685l.011.15c.193 2.675 2.481 4.447 6.08 4.447zm8.676-.387h5.811c4.641 0 7.294-2.846 7.294-7.809v-.022c0-4.855-2.685-7.67-7.294-7.67h-5.811v15.501zm2.771-2.331v-10.838h2.675c3.04 0 4.834 1.976 4.834 5.381v.022c0 3.48-1.751 5.435-4.834 5.435h-2.675zm19.493 2.718c3.578 0 6.145-2.073 6.553-5.178v-.075h-2.718l-.01.054c-.398 1.708-1.859 2.804-3.825 2.804-2.642 0-4.286-2.202-4.286-5.737v-.021c0-3.524 1.644-5.726 4.276-5.726 1.955 0 3.437 1.214 3.835 3.051l.01.043h2.718v-.086c-.365-3.169-3.04-5.403-6.563-5.403-4.394 0-7.112 3.104-7.112 8.132v.021c0 5.006 2.729 8.121 7.122 8.121z"></path><path fill="#fff" fill-rule="evenodd" d="M448.994 121.342a.874.874 0 010 1.237l-4.667 4.667a.874.874 0 01-1.237 0l-4.667-4.667a.876.876 0 011.238-1.237l4.048 4.048 4.048-4.048a.874.874 0 011.237 0z" clip-rule="evenodd"></path></g><g filter="url(#filter2_d_64_4456)"><rect width="148" height="68" x="320" y="258.585" fill="#181818" rx="34"></rect><circle cx="354" cy="292.585" r="24" fill="#000"></circle><path fill="url(#paint1_linear_64_4456)" fill-rule="evenodd" d="M346.165 298.313a.837.837 0 01.617-.273l19.043.015a.42.42 0 01.412.487.414.414 0 01-.104.214l-4.055 4.465a.837.837 0 01-.618.273l-19.041-.015a.417.417 0 01-.413-.486.434.434 0 01.104-.215l4.055-4.465zm19.968-3.717a.417.417 0 01-.308.701l-19.042.016a.841.841 0 01-.618-.274l-4.055-4.467a.424.424 0 01.081-.633.417.417 0 01.228-.068l19.042-.016a.85.85 0 01.617.274l4.055 4.467zm-19.968-12.646a.837.837 0 01.617-.274l19.043.016a.42.42 0 01.308.701l-4.055 4.465a.834.834 0 01-.618.273l-19.041-.016a.417.417 0 01-.413-.486.434.434 0 01.104-.215l4.055-4.464z" clip-rule="evenodd"></path><path fill="#fff" d="M389.294 300.472c3.717 0 6.048-1.89 6.048-4.909v-.011c0-2.342-1.364-3.652-4.63-4.34l-1.665-.354c-1.934-.408-2.718-1.096-2.718-2.191v-.011c0-1.322 1.225-2.127 2.943-2.127 1.773-.011 2.922.848 3.116 2.052l.021.128h2.653l-.01-.139c-.194-2.492-2.331-4.372-5.769-4.372-3.351 0-5.736 1.869-5.736 4.64v.011c0 2.31 1.375 3.792 4.544 4.458l1.665.344c1.998.43 2.804 1.106 2.804 2.224v.01c0 1.332-1.311 2.256-3.18 2.256-1.966 0-3.352-.859-3.481-2.159l-.01-.107h-2.686l.011.15c.193 2.675 2.481 4.447 6.08 4.447zm15.358 0c4.522 0 7.326-3.147 7.326-8.132v-.021c0-4.995-2.815-8.121-7.326-8.121-4.501 0-7.337 3.126-7.337 8.121v.021c0 4.985 2.793 8.132 7.337 8.132zm0-2.395c-2.793 0-4.512-2.256-4.512-5.737v-.021c0-3.502 1.762-5.726 4.512-5.726 2.75 0 4.5 2.224 4.5 5.726v.021c0 3.481-1.74 5.737-4.5 5.737zm10.018 2.008h9.883v-2.331h-7.111v-13.17h-2.772v15.501z"></path><path fill="#fff" fill-rule="evenodd" d="M448.994 289.342a.874.874 0 010 1.237l-4.667 4.667a.874.874 0 01-1.237 0l-4.667-4.667a.876.876 0 011.238-1.237l4.048 4.048 4.048-4.048a.874.874 0 011.237 0z" clip-rule="evenodd"></path></g><path fill="#999" d="M58.762 244.585h3.011v-6.668l5.93-10.242h-3.305l-4.03 7.254h-.2l-4.031-7.254h-3.305l5.93 10.242v6.668zm14.32.258c3.833 0 6.165-2.508 6.165-6.656v-.023c0-4.125-2.344-6.633-6.164-6.633-3.809 0-6.164 2.519-6.164 6.633v.023c0 4.148 2.32 6.656 6.164 6.656zm0-2.367c-2.027 0-3.187-1.582-3.187-4.277v-.024c0-2.695 1.16-4.289 3.188-4.289 2.015 0 3.175 1.594 3.175 4.289v.024c0 2.695-1.148 4.277-3.175 4.277zm12.74 2.367c1.851 0 3.152-.832 3.75-2.203h.199v1.945h2.918v-12.808H89.77v7.465c0 1.922-1.008 3.14-2.895 3.14-1.758 0-2.496-1.007-2.496-2.988v-7.617h-2.918v8.285c0 3.047 1.477 4.781 4.36 4.781zm15.634-.258h2.918v-7.441c0-1.828 1.277-2.988 3.222-2.988.504 0 .985.07 1.453.164v-2.613c-.281-.082-.738-.141-1.183-.141-1.688 0-2.86.809-3.293 2.18h-.199v-1.969h-2.918v12.808zm14.543.258c3.481 0 5.192-2.004 5.602-3.656l.035-.105h-2.777l-.035.082c-.282.586-1.184 1.382-2.766 1.382-1.981 0-3.223-1.336-3.258-3.632h8.953v-.961c0-3.868-2.25-6.422-5.894-6.422-3.645 0-5.977 2.636-5.977 6.668v.011c0 4.079 2.309 6.633 6.117 6.633zm-.105-11.027c1.629 0 2.812 1.043 3.012 3.141h-6.082c.222-2.04 1.441-3.141 3.07-3.141zm13.676 11.027c3.246 0 5.133-1.746 5.555-4.371l.023-.094-2.754.012-.023.047c-.363 1.348-1.289 2.039-2.801 2.039-1.98 0-3.164-1.594-3.164-4.312v-.024c0-2.683 1.172-4.254 3.164-4.254 1.594 0 2.543.891 2.813 2.133l.011.035h2.754v-.047c-.328-2.648-2.296-4.476-5.589-4.476-3.856 0-6.118 2.472-6.118 6.609v.024c0 4.183 2.274 6.679 6.129 6.679zm13.243 0c3.481 0 5.191-2.004 5.602-3.656l.035-.105h-2.778l-.035.082c-.281.586-1.183 1.382-2.765 1.382-1.981 0-3.223-1.336-3.258-3.632h8.953v-.961c0-3.868-2.25-6.422-5.895-6.422-3.644 0-5.976 2.636-5.976 6.668v.011c0 4.079 2.308 6.633 6.117 6.633zm-.105-11.027c1.629 0 2.812 1.043 3.011 3.141h-6.082c.223-2.04 1.442-3.141 3.071-3.141zm9.68-4.184c.949 0 1.734-.761 1.734-1.722 0-.95-.785-1.723-1.734-1.723-.961 0-1.746.773-1.746 1.723a1.73 1.73 0 001.746 1.722zm-1.465 14.953h2.918v-12.808h-2.918v12.808zm9.352 0h3.2l4.535-12.808h-3.071l-2.941 9.961h-.199l-2.965-9.961h-3.117l4.558 12.808zm14.567.258c3.481 0 5.192-2.004 5.602-3.656l.035-.105h-2.777l-.035.082c-.282.586-1.184 1.382-2.766 1.382-1.981 0-3.223-1.336-3.258-3.632h8.953v-.961c0-3.868-2.25-6.422-5.894-6.422-3.645 0-5.977 2.636-5.977 6.668v.011c0 4.079 2.309 6.633 6.117 6.633zm-.105-11.027c1.629 0 2.812 1.043 3.012 3.141h-6.082c.222-2.04 1.441-3.141 3.07-3.141z"></path><path stroke="#fff" stroke-opacity="0.1" stroke-width="3" d="M20 181.085h480"></path><path fill="#999" d="M58.762 68.585h3.011v-6.667l5.93-10.243h-3.305l-4.03 7.254h-.2l-4.031-7.254h-3.305l5.93 10.242v6.668zm14.32.258c3.833 0 6.165-2.508 6.165-6.656v-.023c0-4.125-2.344-6.633-6.164-6.633-3.809 0-6.164 2.52-6.164 6.633v.023c0 4.148 2.32 6.656 6.164 6.656zm0-2.367c-2.027 0-3.187-1.582-3.187-4.277v-.024c0-2.695 1.16-4.289 3.188-4.289 2.015 0 3.175 1.594 3.175 4.29v.023c0 2.695-1.148 4.277-3.175 4.277zm12.74 2.367c1.851 0 3.152-.832 3.75-2.203h.199v1.945h2.918V55.777H89.77v7.465c0 1.922-1.008 3.14-2.895 3.14-1.758 0-2.496-1.008-2.496-2.988v-7.617h-2.918v8.285c0 3.047 1.477 4.781 4.36 4.781zm15.634 3.996h2.918v-6.293h.199c.668 1.383 2.133 2.25 3.891 2.25 3.246 0 5.261-2.52 5.261-6.597v-.024c0-4.054-2.051-6.61-5.261-6.61-1.793 0-3.188.821-3.891 2.216h-.199v-2.004h-2.918v17.062zm6.093-6.504c-1.98 0-3.21-1.582-3.21-4.148v-.023c0-2.567 1.23-4.137 3.21-4.137 1.993 0 3.2 1.57 3.2 4.148v.024c0 2.566-1.207 4.136-3.2 4.136zm12.013 2.461c1.687 0 3.047-.726 3.75-1.968h.199v1.757h2.883v-8.753c0-2.708-1.852-4.301-5.145-4.301-3.047 0-5.109 1.43-5.39 3.586l-.012.105h2.754l.012-.047c.293-.843 1.16-1.324 2.496-1.324 1.57 0 2.402.703 2.402 1.98v1.102l-3.293.2c-3.117.187-4.863 1.523-4.863 3.808v.023c0 2.332 1.769 3.832 4.207 3.832zm-1.324-3.972V64.8c0-1.054.761-1.652 2.39-1.758l2.883-.187v1.031c0 1.524-1.301 2.672-3.059 2.672-1.289 0-2.214-.644-2.214-1.734zm12.035 8.261c2.836 0 4.301-1.02 5.403-4.23l4.593-13.078h-3.07l-2.976 10.008H134l-2.988-10.008h-3.188l4.582 12.82-.152.586c-.317 1.16-1.031 1.652-2.227 1.652-.304 0-.633-.011-.867-.035v2.239c.352.035.762.046 1.113.046z"></path><g filter="url(#filter3_d_64_4456)"><rect width="56" height="56" x="232" y="210.585" fill="#333" rx="28" transform="rotate(-90 232 210.585)"></rect><path fill="#fff" d="M276.333 174.19l-7.465-7.473a1.581 1.581 0 00-2.241 0l-7.465 7.473 2.242 2.244 4.758-4.763v21.653h3.171v-21.653l4.758 4.763 2.242-2.244zm-32.667 16.791l7.464 7.474a1.588 1.588 0 002.242 0l7.464-7.474-2.241-2.244-4.758 4.763v-21.652h-3.172V193.5l-4.758-4.763-2.241 2.244z"></path><rect width="58.786" height="58.786" x="230.607" y="211.978" stroke="#474747" stroke-width="2.786" rx="29.393" transform="rotate(-90 230.607 211.978)"></rect></g><rect width="61" height="13" x="407" y="53.585" fill="#fff" fill-opacity="0.1" rx="6.5"></rect><path fill="#fff" d="M54.4 138.585h19.523v-3.281H59.465v-.082l7.034-7.219c5.435-5.557 6.932-7.998 6.932-11.238v-.041c0-4.635-3.917-8.224-9.27-8.224-5.517 0-9.946 3.794-9.946 8.921v.123h3.568v-.102c0-3.179 2.748-5.722 6.44-5.722 3.22 0 5.496 2.174 5.516 5.189v.041c0 2.461-.923 4.06-4.922 8.223L54.4 136.042v2.543zm31.782 0h3.568v-29.592h-3.61l-7.874 5.66v3.712l7.834-5.455h.082v25.675zm21.836.493c6.809 0 10.89-5.886 10.89-15.279v-.041c0-9.392-4.081-15.258-10.89-15.258-6.808 0-10.849 5.866-10.849 15.258v.041c0 9.393 4.041 15.279 10.849 15.279zm0-3.22c-4.512 0-7.137-4.635-7.137-12.059v-.041c0-7.424 2.625-12.017 7.137-12.017s7.178 4.593 7.178 12.017v.041c0 7.424-2.666 12.059-7.178 12.059zM61.946 307.585h3.569v-29.592h-3.61l-7.875 5.66v3.712l7.834-5.455h.082v25.675zm12.608.288a2.312 2.312 0 002.338-2.338 2.31 2.31 0 00-2.338-2.338 2.31 2.31 0 00-2.338 2.338 2.312 2.312 0 002.338 2.338zm17.94.205c6.152 0 10.52-4.143 10.541-10.07v-.041c0-5.68-4.102-9.802-9.782-9.802-2.872 0-5.332 1.066-6.727 3.055h-.082l1.005-9.946h13.904v-3.281h-16.94l-1.517 16.878h3.26a7.362 7.362 0 011.395-1.744c1.313-1.189 3.035-1.784 5.045-1.784 3.917 0 6.727 2.789 6.747 6.686v.041c0 3.978-2.789 6.767-6.808 6.767-3.548 0-6.173-2.235-6.542-5.168l-.02-.164h-3.63l.02.226c.43 4.819 4.47 8.347 10.13 8.347zm25.015 0c6.152 0 10.52-4.143 10.541-10.07v-.041c0-5.68-4.102-9.802-9.783-9.802-2.871 0-5.332 1.066-6.726 3.055h-.082l1.005-9.946h13.904v-3.281h-16.939l-1.518 16.878h3.261a7.348 7.348 0 011.394-1.744c1.313-1.189 3.035-1.784 5.045-1.784 3.917 0 6.727 2.789 6.747 6.686v.041c0 3.978-2.789 6.767-6.808 6.767-3.548 0-6.173-2.235-6.542-5.168l-.021-.164h-3.63l.021.226c.43 4.819 4.47 8.347 10.131 8.347z"></path></g><path fill="#333" d="M40 363.481c0 10.551 8.553 19.104 19.105 19.104h401.791c10.551 0 19.104-8.553 19.104-19.104v-4.896H40v4.896z" opacity="0.5"></path><path fill="#333" d="M78 382.585c0 10.494 8.507 19 19 19h326c10.493 0 19-8.506 19-19H78z" opacity="0.3"></path><defs><filter id="filter0_d_64_4456" width="520" height="407" x="0" y="0.585" color-interpolation-filters="sRGB" filterUnits="userSpaceOnUse"><feFlood flood-opacity="0" result="BackgroundImageFix"></feFlood><feColorMatrix in="SourceAlpha" result="hardAlpha" values="0 0 0 0 0 0 0 0 0 0 0 0 0 0 0 0 0 0 127 0"></feColorMatrix><feOffset dy="4"></feOffset><feGaussianBlur stdDeviation="10"></feGaussianBlur><feComposite in2="hardAlpha" operator="out"></feComposite><feColorMatrix values="0 0 0 0 0 0 0 0 0 0 0 0 0 0 0 0 0 0 0.25 0"></feColorMatrix><feBlend in2="BackgroundImageFix" result="effect1_dropShadow_64_4456"></feBlend><feBlend in="SourceGraphic" in2="effect1_dropShadow_64_4456" result="shape"></feBlend></filter><filter id="filter1_d_64_4456" width="193.269" height="94.269" x="287.866" y="82.227" color-interpolation-filters="sRGB" filterUnits="userSpaceOnUse"><feFlood flood-opacity="0" result="BackgroundImageFix"></feFlood><feColorMatrix in="SourceAlpha" result="hardAlpha" values="0 0 0 0 0 0 0 0 0 0 0 0 0 0 0 0 0 0 127 0"></feColorMatrix><feOffset dy="4.776"></feOffset><feGaussianBlur stdDeviation="6.567"></feGaussianBlur><feComposite in2="hardAlpha" operator="out"></feComposite><feColorMatrix values="0 0 0 0 0 0 0 0 0 0 0 0 0 0 0 0 0 0 0.1 0"></feColorMatrix><feBlend in2="BackgroundImageFix" result="effect1_dropShadow_64_4456"></feBlend><feBlend in="SourceGraphic" in2="effect1_dropShadow_64_4456" result="shape"></feBlend></filter><filter id="filter2_d_64_4456" width="174.269" height="94.269" x="306.866" y="250.227" color-interpolation-filters="sRGB" filterUnits="userSpaceOnUse"><feFlood flood-opacity="0" result="BackgroundImageFix"></feFlood><feColorMatrix in="SourceAlpha" result="hardAlpha" values="0 0 0 0 0 0 0 0 0 0 0 0 0 0 0 0 0 0 127 0"></feColorMatrix><feOffset dy="4.776"></feOffset><feGaussianBlur stdDeviation="6.567"></feGaussianBlur><feComposite in2="hardAlpha" operator="out"></feComposite><feColorMatrix values="0 0 0 0 0 0 0 0 0 0 0 0 0 0 0 0 0 0 0.1 0"></feColorMatrix><feBlend in2="BackgroundImageFix" result="effect1_dropShadow_64_4456"></feBlend><feBlend in="SourceGraphic" in2="effect1_dropShadow_64_4456" result="shape"></feBlend></filter><filter id="filter3_d_64_4456" width="82.572" height="82.572" x="218.714" y="144.799" color-interpolation-filters="sRGB" filterUnits="userSpaceOnUse"><feFlood flood-opacity="0" result="BackgroundImageFix"></feFlood><feColorMatrix in="SourceAlpha" result="hardAlpha" values="0 0 0 0 0 0 0 0 0 0 0 0 0 0 0 0 0 0 127 0"></feColorMatrix><feOffset dy="3.5"></feOffset><feGaussianBlur stdDeviation="5.25"></feGaussianBlur><feComposite in2="hardAlpha" operator="out"></feComposite><feColorMatrix values="0 0 0 0 0 0 0 0 0 0 0 0 0 0 0 0 0 0 0.25 0"></feColorMatrix><feBlend in2="BackgroundImageFix" result="effect1_dropShadow_64_4456"></feBlend><feBlend in="SourceGraphic" in2="effect1_dropShadow_64_4456" result="shape"></feBlend></filter><linearGradient id="paint0_linear_64_4456" x1="260" x2="260" y1="182.585" y2="344.585" gradientUnits="userSpaceOnUse"><stop></stop><stop offset="1" stop-color="#383838" stop-opacity="0"></stop></linearGradient><linearGradient id="paint1_linear_64_4456" x1="342.737" x2="365.507" y1="303.97" y2="281.2" gradientUnits="userSpaceOnUse"><stop stop-color="#9945FF"></stop><stop offset="0.2" stop-color="#7962E7"></stop><stop offset="1" stop-color="#00D18C"></stop></linearGradient></defs></svg>