<svg xmlns="http://www.w3.org/2000/svg" fill="none" viewBox="0 0 72 72"><rect width="72" height="72" fill="#000" fill-opacity="0.3" rx="36"></rect><path fill="#fff" stroke="#252629" stroke-width="0.5" d="M28.524 37.385h.607l-.431-.428-7.237-7.172a2.75 2.75 0 01-.005-3.901l7.123-7.096a2.75 2.75 0 013.883.002l21.214 21.175.001.002c1.331 1.372 2.071 3.3 2.071 5.327 0 4.368-3.602 7.956-7.94 7.956H19a2.75 2.75 0 01-2.75-2.75V40.135a2.75 2.75 0 012.75-2.75h9.524zM19.32 49.942v.25h28.49c2.663 0 4.87-2.2 4.87-4.898 0-2.653-2.209-4.852-4.87-4.852H19.322v9.5zm4.693-22.282l-.178.178.179.177 9.38 9.297.073.073h13.279l-.427-.427L30.7 21.35l-.176-.176-.177.176-6.333 6.31zM47.57 47.558c-1.285 0-2.273-1.069-2.273-2.264 0-1.234.979-2.217 2.273-2.217 1.244 0 2.227.98 2.227 2.217 0 1.198-.992 2.264-2.227 2.264z"></path></svg>